<svg width="3043" height="1120" xmlns="http://www.w3.org/2000/svg" xmlns:xlink="http://www.w3.org/1999/xlink" xml:space="preserve" overflow="hidden"><defs><clipPath id="clip0"><rect x="3" y="162" width="3043" height="1120"/></clipPath><linearGradient x1="1698" y1="716" x2="1698" y2="860" gradientUnits="userSpaceOnUse" spreadMethod="reflect" id="fill1"><stop offset="0" stop-color="#EAB7AA"/><stop offset="0.5" stop-color="#E5AA9C"/><stop offset="1" stop-color="#E59C8A"/></linearGradient><linearGradient x1="480" y1="788" x2="59.0002" y2="788" gradientUnits="userSpaceOnUse" spreadMethod="reflect" id="fill2"><stop offset="0" stop-color="#B3BFC4"/><stop offset="0.5" stop-color="#A7B5BA"/><stop offset="1" stop-color="#99ABB1"/></linearGradient><linearGradient x1="1691.5" y1="615" x2="1691.5" y2="649" gradientUnits="userSpaceOnUse" spreadMethod="reflect" id="fill3"><stop offset="0" stop-color="#B3BFC4"/><stop offset="0.5" stop-color="#A7B5BA"/><stop offset="1" stop-color="#99ABB1"/></linearGradient><linearGradient x1="250.5" y1="-7.87751e-15" x2="250.5" y2="33.9997" gradientUnits="userSpaceOnUse" spreadMethod="reflect" id="fill4"><stop offset="0" stop-color="#B3BFC4"/><stop offset="0.5" stop-color="#A7B5BA"/><stop offset="1" stop-color="#99ABB1"/></linearGradient><linearGradient x1="1519" y1="1086" x2="1519" y2="1164" gradientUnits="userSpaceOnUse" spreadMethod="reflect" id="fill5"><stop offset="0" stop-color="#B3BFC4"/><stop offset="0.5" stop-color="#A7B5BA"/><stop offset="1" stop-color="#99ABB1"/></linearGradient><linearGradient x1="2528.5" y1="503" x2="2528.5" y2="1070" gradientUnits="userSpaceOnUse" spreadMethod="reflect" id="fill6"><stop offset="0" stop-color="#EBE4C8"/><stop offset="0.5" stop-color="#E6DDBB"/><stop offset="1" stop-color="#E4DAB0"/></linearGradient><linearGradient x1="950" y1="523" x2="950" y2="1089" gradientUnits="userSpaceOnUse" spreadMethod="reflect" id="fill7"><stop offset="0" stop-color="#EBE4C8"/><stop offset="0.5" stop-color="#E6DDBB"/><stop offset="1" stop-color="#E4DAB0"/></linearGradient><linearGradient x1="2278" y1="338" x2="2278" y2="1281" gradientUnits="userSpaceOnUse" spreadMethod="reflect" id="fill8"><stop offset="0" stop-color="#B3CCD6"/><stop offset="0.5" stop-color="#A6C2CE"/><stop offset="1" stop-color="#96BBC9"/></linearGradient></defs><g clip-path="url(#clip0)" transform="translate(-3 -162)"><path d="M354 768 2833.89 768 2833.89 716 3042 788.002 2833.89 860 2833.89 808 354 808Z" stroke="#D66E49" stroke-width="2.29167" stroke-miterlimit="8" fill="url(#fill1)" fill-rule="evenodd"/><path d="M480 759.288 480 816.712 443.712 853 59.0001 853 59.0001 853 59.0001 723 59.0001 723 443.712 723Z" stroke="#6A868F" stroke-width="2.29167" stroke-miterlimit="8" fill="url(#fill2)" fill-rule="evenodd"/><text fill="#3B424B" font-family="Arial,Arial_MSFontService,sans-serif" font-weight="400" font-size="83" transform="matrix(1 0 0 1 53.1663 652)">He<tspan font-size="83" x="105.417" y="0">-</tspan>Ne <tspan font-family="KaiTi,KaiTi_MSFontService,sans-serif" font-size="83" x="261.25" y="0">激光器</tspan></text><path d="M1340.5 388.5 1340.5 1125.5" stroke="#778495" stroke-width="4.58333" stroke-miterlimit="8" fill="none" fill-rule="evenodd"/><path d="M1340.5 388.5 1692.5 388.5" stroke="#778495" stroke-width="4.58333" stroke-miterlimit="8" fill="none" fill-rule="evenodd"/><path d="M1692.5 388.5 1692.5 619.228" stroke="#778495" stroke-width="4.58333" stroke-miterlimit="8" fill="none" fill-rule="evenodd"/><path d="M1458 615 1925 615C1934.39 615 1942 622.611 1942 632L1942 649 1441 649 1441 632C1441 622.611 1448.61 615 1458 615Z" stroke="#6A868F" stroke-width="2.29167" stroke-miterlimit="8" fill="url(#fill3)" fill-rule="evenodd"/><path d="M16.9997 0 484 0C493.389-1.99327e-15 501 7.61109 501 16.9998L501 33.9997 0 33.9997 0 16.9998C-1.99325e-15 7.61109 7.61102-5.9798e-15 16.9997-7.97306e-15Z" stroke="#6A868F" stroke-width="2.29167" stroke-miterlimit="8" fill="url(#fill4)" fill-rule="evenodd" transform="matrix(1 0 0 -1 1441 941)"/><path d="M1703.5 941.5 1703.5 1125.41" stroke="#778495" stroke-width="4.58333" stroke-miterlimit="8" fill="none" fill-rule="evenodd"/><path d="M1340.5 1125.5 1481.12 1125.5" stroke="#778495" stroke-width="4.58333" stroke-miterlimit="8" fill="none" fill-rule="evenodd"/><path d="M1480 1125C1480 1103.46 1497.46 1086 1519 1086 1540.54 1086 1558 1103.46 1558 1125 1558 1146.54 1540.54 1164 1519 1164 1497.46 1164 1480 1146.54 1480 1125Z" stroke="#6A868F" stroke-width="2.29167" stroke-miterlimit="8" fill="url(#fill5)" fill-rule="evenodd"/><text fill="#3B424B" font-family="Calibri,Calibri_MSFontService,sans-serif" font-weight="400" font-size="64" transform="matrix(1 0 0 1 1498.83 1146)">G</text><path d="M1558.5 1125.5 1702.93 1125.5" stroke="#778495" stroke-width="4.58333" stroke-miterlimit="8" fill="none" fill-rule="evenodd"/><rect x="2492" y="503" width="73.0002" height="567" stroke="#D6C88B" stroke-width="2.29167" stroke-miterlimit="8" fill="url(#fill6)"/><rect x="913" y="523" width="73.9999" height="566" stroke="#D6C88B" stroke-width="2.29167" stroke-miterlimit="8" fill="url(#fill7)"/><rect x="2246" y="338" width="64" height="943" stroke="#649EB2" stroke-width="2.29167" stroke-miterlimit="8" fill="url(#fill8)"/><text fill="#3B424B" font-family="Arial,Arial_MSFontService,sans-serif" font-weight="400" font-size="83" transform="matrix(1 0 0 1 932.505 446)">P<tspan font-size="83" x="1578.5" y="-19">A</tspan><tspan font-size="83" x="1192.55" y="-174">1/4  </tspan><tspan font-family="KaiTi,KaiTi_MSFontService,sans-serif" font-size="83" x="1352.97" y="-174">波</tspan><tspan font-family="KaiTi,KaiTi_MSFontService,sans-serif" font-size="83" x="1435.47" y="-174">片</tspan></text></g></svg>